<svg width="48" height="48" viewBox="0 0 48 48" fill="none" xmlns="http://www.w3.org/2000/svg">
<path d="M10.211 37.789C7.48371 35.0619 5.62638 31.5872 4.87389 27.8045C4.12141 24.0218 4.50758 20.1008 5.98356 16.5376C7.45954 12.9743 9.95903 9.92875 13.1659 7.78608C16.3729 5.6434 20.1431 4.49983 24 4.5M37.789 10.211C40.5163 12.9381 42.3736 16.4128 43.1261 20.1955C43.8786 23.9782 43.4924 27.8992 42.0164 31.4624C40.5405 35.0257 38.041 38.0712 34.8341 40.2139C31.6271 42.3566 27.8569 43.5002 24 43.5" stroke="white" stroke-linecap="round" stroke-linejoin="round"/>
<path d="M34.804 12.142C36.5503 12.142 37.966 10.7263 37.966 8.97999C37.966 7.23367 36.5503 5.81799 34.804 5.81799C33.0577 5.81799 31.642 7.23367 31.642 8.97999C31.642 10.7263 33.0577 12.142 34.804 12.142Z" stroke="white" stroke-linecap="round" stroke-linejoin="round"/>
<path d="M13.196 42.182C14.9423 42.182 16.358 40.7664 16.358 39.02C16.358 37.2737 14.9423 35.858 13.196 35.858C11.4497 35.858 10.034 37.2737 10.034 39.02C10.034 40.7664 11.4497 42.182 13.196 42.182Z" stroke="white" stroke-linecap="round" stroke-linejoin="round"/>
<path d="M19.872 20.299L23.035 26.624L33.575 25.57L27.251 12.92L19.872 20.299Z" stroke="white" stroke-linecap="round" stroke-linejoin="round"/>
<path d="M19.872 20.299L15.656 22.407C14.389 23.04 14.496 25.357 15.129 26.624C15.762 27.891 17.551 29.365 18.819 28.732L23.035 26.624M22.103 27.162L24.738 32.432L22.63 33.486L19.995 28.216" stroke="white" stroke-linecap="round" stroke-linejoin="round"/>
</svg>
